<svg width="237" height="28" viewBox="0 0 237 28" fill="none" xmlns="http://www.w3.org/2000/svg">
<path d="M59.5548 4.66406L59.5548 24.0341L56.4829 24.0341L56.4829 9.81792L49.5211 20.2612L48.2056 20.2612L41.2438 9.81792L41.2438 24.0341L38.1719 24.0341L38.1719 4.66406L41.2438 4.66406L48.8461 16.015L56.4853 4.66406L59.5573 4.66406L59.5548 4.66406Z" fill="white"/>
<path d="M69.3725 9.96323C72.208 9.96323 74.3192 11.4683 75.1617 13.403L75.3391 10.239L78.2336 10.239L78.2336 24.0462L75.3391 24.0462L75.1617 20.8822C74.3192 22.8192 72.208 24.3219 69.3725 24.3219C65.1255 24.3219 62.125 21.1027 62.125 17.1529C62.125 13.2031 65.1378 9.98392 69.3725 9.98392L69.3725 9.96094L69.3725 9.96323ZM70.05 21.599C72.8017 21.599 74.8414 19.5862 74.8414 17.1299C74.8414 14.6736 72.7894 12.6608 70.05 12.6608C67.3106 12.6608 65.1625 14.6736 65.1625 17.1299C65.1625 19.5862 67.2392 21.599 70.05 21.599Z" fill="white"/>
<path d="M194.779 9.96323C197.614 9.96323 199.725 11.4683 200.568 13.403L200.745 10.239L203.64 10.239L203.64 24.0462L200.745 24.0462L200.568 20.8822C199.725 22.8192 197.614 24.3219 194.779 24.3219C190.532 24.3219 187.531 21.1027 187.531 17.1529C187.531 13.2031 190.544 9.98392 194.779 9.98392L194.779 9.96094L194.779 9.96323ZM195.454 21.599C198.205 21.599 200.245 19.5862 200.245 17.1299C200.245 14.6736 198.193 12.6608 195.454 12.6608C192.714 12.6608 190.566 14.6736 190.566 17.1299C190.566 19.5862 192.643 21.599 195.454 21.599Z" fill="white"/>
<path d="M88.9577 10.5602L88.4946 13.0372C88.199 12.8717 87.6176 12.6488 86.9771 12.6488C84.8659 12.6488 83.846 14.7513 83.846 17.5063L83.846 24.0227L80.8086 24.0227L80.8086 10.2155L83.6785 10.2155L83.8559 12.2835L83.8559 12.3386C84.6147 10.9439 85.6345 9.9375 87.1643 9.9375C88.6942 9.9375 88.6597 10.2684 88.9799 10.5349L88.9553 10.5579L88.9577 10.5602Z" fill="white"/>
<path d="M99.5727 24.2969C96.9171 24.2969 94.6261 22.9367 93.7836 21.0227L93.6407 24.0212L90.7461 24.0212L90.7461 3.57812L93.7836 3.57813L93.7836 13.2356C94.6261 11.3215 96.9146 9.96128 99.5727 9.96128C103.82 9.96128 106.82 13.1804 106.82 17.1303C106.82 21.0801 103.807 24.2992 99.5727 24.2992L99.5727 24.2969ZM98.9322 12.6588C96.1559 12.6588 94.1038 14.6717 94.1038 17.128C94.1038 19.5843 96.1559 21.5971 98.9322 21.5971C101.709 21.5971 103.783 19.5843 103.783 17.128C103.783 14.6717 101.706 12.6588 98.9322 12.6588Z" fill="white"/>
<path d="M112.049 24.0327L109.012 24.0327L109.012 3.57812L112.049 3.57813L112.049 24.0327Z" fill="white"/>
<path d="M129.272 18.0067L117.519 18.0067C117.602 20.1299 119.297 21.7682 122.145 21.7682C124.993 21.7682 125.621 20.6721 126.237 19.6106L128.892 19.8863C128.395 21.8003 126.082 24.3003 122.108 24.3003C118.134 24.3003 114.469 21.1593 114.469 17.044C114.469 12.9287 117.422 9.95313 121.869 9.95313C126.316 9.95313 129.269 13.3607 129.269 17.2875L129.269 18.0067L129.272 18.0067ZM117.516 16.0146L126.197 16.0146C126.079 14.1557 124.441 12.4967 121.869 12.4967C119.297 12.4967 117.622 14.0776 117.516 16.0146Z" fill="white"/>
<path d="M134.192 20.0182C134.488 21.1349 135.71 21.8978 137.609 21.8978C139.509 21.8978 140.302 21.3555 140.302 20.372C140.302 19.3886 138.962 18.7682 135.914 17.7825C133.579 17.0748 131.621 16.0132 131.621 13.7775C131.621 11.5418 134.195 9.96094 136.851 9.96094C139.506 9.96094 142.379 11.7647 142.519 14.0211L139.447 14.0211C139.329 12.8699 138.107 12.3276 136.956 12.3276C135.806 12.3276 134.68 12.8147 134.68 13.7775C134.68 14.7403 135.937 15.1171 138.974 16.1787C141.987 17.1621 143.361 18.5247 143.361 20.4387C143.361 22.3527 140.812 24.3104 137.538 24.3104C134.264 24.3104 131.431 22.8605 131.133 20.0297L134.17 20.0297L134.195 20.0182L134.192 20.0182Z" fill="white"/>
<path d="M12.6829 23.6261C9.611 23.2378 7.12043 21.7672 5.56598 19.3776C5.21124 18.8238 5.3418 18.061 5.93303 17.7071C6.52673 17.3532 7.3446 17.5187 7.71166 18.0954C8.92123 19.998 10.6999 20.8389 12.3725 21.1698C12.9071 21.2686 13.4047 20.9033 13.4047 20.407L13.4047 8.34836C13.4047 7.78312 12.7889 7.39709 12.2297 7.61768C11.328 7.98302 10.5348 8.52529 10.0125 9.18934C9.76373 9.51103 9.38436 9.67646 8.99267 9.67646C8.60097 9.67646 8.45809 9.59834 8.23392 9.44439C7.65254 9.04688 7.61805 8.22658 8.05655 7.6958C9.12323 6.40217 10.7836 5.43941 12.6115 5.01892C13.0746 4.90863 13.4072 4.5318 13.4072 4.09063L13.4072 1.65731C13.4072 1.0599 12.8381 0.61643 12.21 0.717532C7.24114 1.50336 3.12468 4.57775 1.15636 8.73898C0.419787 10.2877 1.181 12.1029 2.86355 12.7554L2.89804 12.7554C4.74811 13.4746 6.78786 13.4746 8.35463 12.7554C8.89905 12.5119 9.57651 12.59 9.95588 13.0427C10.4781 13.6516 10.2515 14.5247 9.53956 14.8579C8.38911 15.4002 7.07362 15.6644 5.70886 15.6644C4.3441 15.6644 3.14685 15.4323 1.92497 14.9682C1.70079 14.8786 1.47415 14.7913 1.25983 14.6925C0.653818 14.4052 -0.055661 14.8694 0.00346227 15.499C0.0625856 16.1285 0.134026 16.8271 0.239955 17.259C1.53328 22.7782 6.39617 27.0612 12.4563 27.9114C12.9416 27.978 13.3924 27.6127 13.3924 27.1601L13.3924 24.4165C13.3924 24.0282 13.0845 23.7088 12.6805 23.6652L12.6805 23.633L12.6829 23.6261Z" fill="white"/>
<path d="M16.6535 23.6261C19.7255 23.2378 22.216 21.7672 23.7705 19.3776C24.1252 18.8238 23.9947 18.061 23.4034 17.7071C22.8097 17.3532 21.9919 17.5187 21.6248 18.0954C20.4152 19.998 18.6366 20.8389 16.9639 21.1698C16.4293 21.2686 15.9317 20.9033 15.9317 20.407L15.9317 8.34836C15.9317 7.78312 16.5476 7.39709 17.1068 7.61768C18.0084 7.98302 18.8017 8.52529 19.3239 9.18934C19.5727 9.51103 19.9521 9.67646 20.3438 9.67646C20.7355 9.67646 20.8784 9.59834 21.1025 9.44439C21.6839 9.04688 21.7184 8.22658 21.2799 7.6958C20.2132 6.40217 18.5529 5.43941 16.725 5.01892C16.2618 4.90863 15.9293 4.5318 15.9293 4.09063L15.9293 1.65731C15.9293 1.0599 16.4983 0.61643 17.1265 0.717532C22.083 1.49187 26.1872 4.57775 28.1579 8.73898C28.8945 10.2877 28.1333 12.1029 26.4507 12.7554L26.4163 12.7554C24.5662 13.4746 22.5264 13.4746 20.9597 12.7554C20.4152 12.5119 19.7378 12.59 19.3584 13.0427C18.8362 13.6516 19.0628 14.5247 19.7747 14.8579C20.9252 15.4002 22.2407 15.6644 23.6054 15.6644C24.9702 15.6644 26.1674 15.4323 27.3893 14.9682C27.6135 14.8786 27.8401 14.7913 28.0545 14.6925C28.6605 14.4052 29.37 14.8694 29.3108 15.499C29.2517 16.1285 29.1803 16.8271 29.0743 17.259C27.781 22.7782 22.9181 27.0612 16.858 27.9114C16.3727 27.978 15.9219 27.6127 15.9219 27.1601L15.9219 24.4165C15.9219 24.0282 16.2298 23.7088 16.6338 23.6652L16.6585 23.633L16.6535 23.6261Z" fill="white"/>
<path d="M154.616 23.9973L151.793 23.9973L151.793 3.53125L154.616 3.53125L154.616 12.3041L165.586 12.3041L165.586 3.53125L168.409 3.53125L168.409 23.9973L165.586 23.9973L165.586 14.7718L154.616 14.7718L154.616 23.9973Z" fill="white"/>
<path d="M178.598 24.4515C176.391 24.4515 174.578 23.7438 173.142 22.3375C171.706 20.9336 170.996 19.1506 170.996 16.9953C170.996 14.84 171.683 13.0799 173.083 11.6622C174.47 10.2468 176.248 9.53906 178.421 9.53906C180.594 9.53906 182.419 10.2146 183.735 11.5519C185.05 12.8915 185.715 14.7825 185.715 17.1929L185.681 17.4801L173.881 17.4801C173.915 18.8518 174.415 19.9571 175.352 20.798C176.288 21.639 177.416 22.0595 178.719 22.0595C180.022 22.0595 181.922 21.2185 182.954 19.5481L185.469 20.6878C184.794 21.8711 183.855 22.7902 182.67 23.4634C181.473 24.1275 180.121 24.4584 178.613 24.4584L178.601 24.4469L178.598 24.4515ZM174.093 15.3133L182.703 15.3133C182.619 14.3391 182.193 13.5326 181.434 12.9007C180.663 12.2596 179.643 11.9379 178.35 11.9379C177.056 11.9379 176.369 12.2481 175.61 12.857C174.839 13.4659 174.341 14.2839 174.093 15.3133Z" fill="white"/>
<path d="M209.198 3.53125L209.198 23.9973L206.375 23.9973L206.375 3.53125L209.198 3.53125Z" fill="white"/>
<path d="M218.345 24.2267C217.123 24.2267 216.103 23.8728 215.298 23.1651C214.492 22.4574 214.076 21.4832 214.051 20.2217L214.051 12.3887L211.418 12.3887L211.418 9.98751L214.051 9.98751L214.051 5.69531L216.875 5.69531L216.875 9.98751L220.553 9.98751L220.553 12.3887L216.875 12.3887L216.875 19.3577C216.875 20.286 217.064 20.9294 217.456 21.2603C217.848 21.5912 218.286 21.7589 218.771 21.7589C219.257 21.7589 219.21 21.7359 219.424 21.6923C219.639 21.6486 219.841 21.582 220.018 21.5038L220.907 23.8498C220.171 24.0934 219.318 24.2267 218.333 24.2267L218.345 24.2267Z" fill="white"/>
<path d="M223.41 3.53125L226.233 3.53125L226.233 9.99253L226.115 11.9387L226.233 11.9387C226.659 11.2517 227.325 10.6773 228.214 10.2246C229.103 9.77194 230.03 9.53757 230.99 9.53757C232.828 9.53757 234.24 10.0247 235.237 11.0081C236.223 11.9916 236.72 13.3863 236.72 15.19L236.72 23.995L233.897 23.995L233.897 15.7093C233.897 13.1979 232.7 11.9364 230.315 11.9364C227.931 11.9364 228.204 12.3799 227.421 13.2645C226.637 14.1492 226.246 15.19 226.246 16.3619L226.246 23.995L223.422 23.995L223.422 3.53125L223.41 3.53125Z" fill="white"/>
</svg>
